<?xml version="1.0" encoding="UTF-8"?>
<svg id="Layer_1" xmlns="http://www.w3.org/2000/svg" version="1.1" viewBox="0 0 347.9 216.4">
  <!-- Generator: Adobe Illustrator 29.8.2, SVG Export Plug-In . SVG Version: 2.1.1 Build 3)  -->
  <defs>
    <style>
      .st0 {
        fill-rule: evenodd;
      }

      .st0, .st1 {
        fill: #53575a;
      }

      .st2 {
        fill: #fff;
      }
    </style>
  </defs>
  <g>
    <path class="st2" d="M334,55.1c-1,0-1.8-.2-2.4-.9l.8-.8c.4.4,1,.6,1.6.6s1.2-.3,1.2-.8,0-.4-.2-.6c-.1-.1-.3-.2-.6-.2h-.8c-.6-.2-1-.4-1.3-.7-.3-.3-.5-.8-.5-1.3,0-1.2.9-2,2.3-2s1.6.2,2.2.8l-.8.8c-.4-.4-.9-.5-1.4-.5-.7,0-1,.4-1,.8s0,.3.2.5c.1.1.3.2.6.3h.8c.6.2,1,.4,1.3.6.4.3.5.8.5,1.4,0,1.3-1.1,2-2.5,2Z"/>
    <path class="st2" d="M342.4,55v-3.9l-1.3,2.5h-.9l-1.3-2.5v3.9h-1.3v-6.7h1.3l1.7,3.6,1.7-3.6h1.3v6.7h-1.3Z"/>
  </g>
  <g>
    <path class="st2" d="M2.7,168.8v-54.4h35.8v9.5H13.4v12.8h21.5v9.5H13.4v13.2h25.2v9.5H2.7Z"/>
    <path class="st2" d="M52,168.8v-54.4h10.6v54.4h-10.6Z"/>
    <path class="st2" d="M110.5,168.8l-21.5-33.4v33.4h-10.6v-54.4h9.5l21.5,33.3v-33.3h10.6v54.4h-9.5Z"/>
    <path class="st2" d="M150.7,169.3c-8.3,0-14.5-1.8-19.9-7.2l6.9-6.9c3.4,3.4,8.1,4.6,13.1,4.6s9.6-2.4,9.6-6.7-.5-3.5-1.7-4.6c-1.1-1-2.3-1.5-4.8-1.9l-6.6-.9c-4.7-.7-8.1-2.1-10.5-4.5-2.6-2.6-3.9-6.1-3.9-10.7,0-9.7,7.2-16.5,18.9-16.5s12.9,1.8,17.6,6.3l-6.7,6.6c-3.4-3.3-7.6-3.7-11.2-3.7-5.7,0-8.4,3.1-8.4,6.9s.5,2.8,1.6,3.9c1.1,1,2.8,1.8,5,2.1l6.4.9c5,.7,8.1,2.1,10.4,4.2,2.9,2.8,4.2,6.7,4.2,11.5,0,10.5-8.8,16.5-20.2,16.5Z"/>
    <path class="st2" d="M204.7,123.9v44.9h-10.6v-44.9h-14.2v-9.5h39v9.5h-14.2Z"/>
    <path class="st2" d="M230.6,168.8v-54.4h35.8v9.5h-25.2v12.8h21.5v9.5h-21.5v13.2h25.2v9.5h-35.8Z"/>
    <path class="st2" d="M279.9,168.8v-54.4h10.6v54.4h-10.6Z"/>
    <path class="st2" d="M338.5,168.8l-21.5-33.4v33.4h-10.6v-54.4h9.5l21.5,33.3v-33.3h10.6v54.4h-9.5Z"/>
  </g>
  <g>
    <path class="st2" d="M17.7,63.4c2.2-2.2,7.4-7.2,12.1-11.6-.3-2.1-.6-4.2-.6-6.1,0-5,2.3-8,6-8s4.7,2.1,4.7,4.6-3.2,6.4-6.5,9.7c.4,2.5.8,5.1.8,7.1,0,6.4-4.2,10.7-10.2,10.7s-4.8-.8-6.5-2.1c-1.6,2.1-2.5,4.3-2,7.1h-2.5c-.5-2.8.3-5.8,2.7-8.9-1.3-1.6-2-3.7-2-6.1,0-7.4,7.1-11.2,12.5-8.4l-1.1,2.7c-4.4-1.8-8.2,1.4-8.2,5.7s.3,2.6,1,3.6ZM30.3,54.9c-3.6,3.5-7.2,6.9-10.8,10.4,1.1.8,2.5,1.4,4.2,1.4,4.1,0,7.1-2.9,7.1-7.6s-.2-2.6-.4-4.2ZM32.8,48.8c2.7-2.6,4.2-4.3,4.2-6.2s-.6-2-1.7-2-2.8,1.6-2.8,4.8.1,2.1.3,3.4Z"/>
    <path class="st2" d="M65,58.6c-2.7,4.8-5.8,8.6-9.2,8.6s-4.4-1.9-2-8l1.4-3.4c.6-1.5,1.2-2.9,1.2-3.5s-.4-.8-1-.8c-.9,0-2.6.8-4.1,2.5l-5.2,12.7h-3.6s4.2-10.5,4.4-11c.6-1.5,1.2-2.9,1.2-3.5s-.4-.8-1-.8c-.9,0-2.6.8-4.1,2.5l-5.1,12.7h-3.6l7.1-17.8h3.6l-.7,1.8c1.7-1.6,3.4-2.2,4.8-2.2s2.7,1,2.7,2.8c2-2.1,4-2.8,5.4-2.8s2.8.9,2.8,2.7-.4,2.5-1.1,4.2l-2.1,5.1c-1.6,4-.6,4.4-.1,4.4,1.7,0,4.4-3.4,6.8-7.4.5,0,1.3.5,1.5,1.1Z"/>
    <path class="st2" d="M82.8,58.6c-2.6,4.6-5.7,8.6-9.2,8.6s-3.1-2.7-3.1-2.7c0,0-2.1,2.7-4.8,2.7s-3.3-1.7-3.3-3.8c0-3.7,3.2-14.8,9-14.8s3.4,2.8,3.4,2.8l1-2.3h3.6l-4.7,11.5c-1.4,3.5-1,4.4,0,4.4,1.7,0,4.4-3.4,6.7-7.4.5,0,1.3.5,1.5,1.1ZM70.8,61.1l2.8-7s0-2.5-1.7-2.5c-3.2,0-6.2,8.5-6.2,11.2s.4,1.4,1.1,1.4c2,0,3.9-3.1,3.9-3.1Z"/>
    <path class="st2" d="M81.3,57.5c1-1.6,2.1-3.9,3-6.1-.6-.7-1.1-1.4-1.1-2.2,0-1.6,1.6-3.2,3-3.6l1.8,1.3-1.3,3c1.4,1.3,4.1,2.8,4.1,5s-.1,1-.4,1.7l-1.5,3.8c-1.6,3.9-.7,4.4-.2,4.4,1.3,0,3.2-2.6,6-7.4.5,0,1.3.5,1.5,1.1-2.6,4.5-5.2,8.6-8.4,8.6s-4.3-2.2-1.9-8l1.3-3.1c.3-.7.3-1,.3-1.2,0-.7-.7-1.3-1.8-2.2-.9,1.8-1.8,3.9-3,5.9-.5,0-1.3-.5-1.5-1.1Z"/>
    <path class="st2" d="M105.9,58.6c-2.6,4.5-5.9,8.6-9.7,8.6s-4.5-1.9-2.1-8l4.1-10.2h-3.1l.8-1.8h3.1l2-4.9h3.6l-2,4.9h3l-.8,1.8h-3l-4.7,11.5c-1.6,3.9-.8,4.4,0,4.4,2,0,4.9-3.2,7.3-7.4.5,0,1.3.5,1.5,1.1Z"/>
  </g>
  <g>
    <path class="st2" d="M264.7,43.1c2-1.8,3.9-2.4,5.3-2.4s3.2,1.2,3.1,3.1c2.3-2.4,4.7-3.1,6.1-3.1s3.1,1.1,3.1,2.9-.5,2.7-1.3,4.8l-7.4,18.3c-.7,2-.6,3.3,1.2,4.4l-1.2,3.1c-3.7-1.7-4.7-4.6-3.2-8.5l6.6-16.4c.8-1.9,1.5-3.6,1.5-4.3s-.1-1-1-1c-1.3,0-3.6,1.3-5.2,3.1l-8.1,20.1h-3.6l7.2-17.9c.8-1.9,1.5-3.6,1.5-4.3s-.1-1-1-1c-1.3,0-3.6,1.3-5.2,3.1l-8.1,20.1h-3.6l9.3-23.3c-4.3,1.9-11.1,3.4-11.1,7.7s1.1,3,2.7,3v3c-3.6,0-5.8-2.7-5.7-5.8,0-7.1,9.6-8.6,15.6-11.4l2.5,2.7Z"/>
    <path class="st2" d="M299,58.6c-2.1,3.6-5.1,5.8-8.5,4.9-1.6,2.2-3.7,3.7-6.2,3.7s-4.5-1.5-4.5-4.9,3.5-13.8,9.8-13.8,4.4,1.5,4.4,4.8-.8,5.4-2.3,8.1c1.8.4,3.9-.8,5.8-4,.5,0,1.3.5,1.5,1.1ZM287.6,62.1c-.4-.4-.6-.9-.6-1.5,0-1.3,1.1-2.3,2.4-2.1.8-2.1,1.4-4.2,1.4-5.5s-.6-2-1.4-2c-3,0-6.4,8.5-6.4,11.7s.6,2.1,1.5,2.1,2.2-1.1,3.2-2.7Z"/>
    <path class="st2" d="M314.3,58.6c-2.3,4-5.9,6.3-10.2,4.4,0,0-2.2,2.1-5.2,3.8h-3.5l3.9-17.8h3.5l-3.1,14.4c3.4-2.5,7.8-6.8,9.3-14.4l2.8-.4c-.4,2.5-1.7,7.8-6,12.7,2.2,1,4.8,0,7-3.7.5,0,1.3.5,1.5,1.1Z"/>
    <path class="st2" d="M328.9,58.6c-2.4,4.1-6.2,8.6-11.7,8.6s-5.3-1.8-5.3-5.2c0-4.9,4-13.5,9.8-13.5s5.1,2.9,3.1,7c-1.8,3.7-4.7,4.6-9.1,4.1,0,0-2,5.2,2.4,5.2s6.9-3,9.4-7.4c.5,0,1.3.5,1.5,1.1ZM316.3,57.8c3.3.6,4.6-1.2,5.5-3.1,1-2.2.9-3.2-.3-3.2-3,0-5.2,6.3-5.2,6.3Z"/>
  </g>
  <g>
    <path class="st1" d="M84.9,216.2v-15.1l-5,9.8h-3.4l-5-9.8v15.1h-5.1v-26h5l6.8,14,6.7-14h5v26h-5.1Z"/>
    <path class="st1" d="M114.6,213.6c-1.8,1.8-4,2.8-7,2.8s-5.2-1-7-2.8c-2.6-2.6-2.6-5.9-2.6-10.4s0-7.7,2.6-10.4,4.1-2.8,7-2.8,5.2,1,7,2.8c2.6,2.6,2.6,5.9,2.6,10.4s0,7.7-2.6,10.4ZM110.9,195.9c-.7-.8-1.9-1.4-3.2-1.4s-2.6.5-3.3,1.4c-1,1.1-1.2,2.3-1.2,7.3s.3,6.2,1.2,7.3c.7.8,1.9,1.4,3.3,1.4s2.5-.5,3.2-1.4c1-1.1,1.3-2.3,1.3-7.3s-.3-6.2-1.3-7.3Z"/>
    <path class="st1" d="M134.4,216.2h-3.8l-8.6-26h5.3l5.2,16.9,5.2-16.9h5.3l-8.6,26Z"/>
    <path class="st1" d="M149.1,216.2v-26h5.1v26h-5.1Z"/>
    <path class="st1" d="M178.5,216.2l-10.3-15.9v15.9h-5.1v-26h4.5l10.3,15.9v-15.9h5.1v26h-4.5Z"/>
    <path class="st1" d="M208,213.5c-2.1,2.2-4.6,3-7.3,3s-5.2-1-7-2.8c-2.6-2.6-2.6-5.9-2.6-10.4s0-7.7,2.6-10.4,4.1-2.8,7-2.8c6,0,9.1,3.9,9.8,8.3h-5.1c-.6-2.4-2.1-3.8-4.7-3.8s-2.5.5-3.2,1.4c-1,1.1-1.2,2.3-1.2,7.3s.3,6.2,1.2,7.3c.7.8,1.9,1.3,3.2,1.3s2.8-.5,3.6-1.5c.8-.9,1.2-2.1,1.2-3.5v-1h-4.8v-4.2h9.8v3.8c0,3.8-.7,6-2.5,7.9Z"/>
    <path class="st1" d="M238.6,216.4c-2.8,0-5.2-1-7-2.8-2.6-2.6-2.6-5.9-2.6-10.4s0-7.7,2.6-10.4,4.2-2.8,7-2.8c4.9,0,8.6,2.8,9.6,8.2h-5.1c-.5-2.1-1.8-3.7-4.4-3.7s-2.5.5-3.2,1.3c-1,1.1-1.3,2.3-1.3,7.3s.3,6.2,1.3,7.3c.7.8,1.9,1.3,3.2,1.3,2.6,0,3.9-1.6,4.4-3.7h5.1c-.9,5.4-4.7,8.2-9.6,8.2Z"/>
    <path class="st1" d="M271.1,213.6c-1.8,1.8-4,2.8-7,2.8s-5.2-1-7-2.8c-2.6-2.6-2.6-5.9-2.6-10.4s0-7.7,2.6-10.4,4.1-2.8,7-2.8,5.2,1,7,2.8c2.6,2.6,2.6,5.9,2.6,10.4s0,7.7-2.6,10.4ZM267.4,195.9c-.7-.8-1.9-1.4-3.2-1.4s-2.6.5-3.3,1.4c-1,1.1-1.2,2.3-1.2,7.3s.3,6.2,1.2,7.3c.7.8,1.9,1.4,3.3,1.4s2.5-.5,3.2-1.4c1-1.1,1.3-2.3,1.3-7.3s-.3-6.2-1.3-7.3Z"/>
    <path class="st1" d="M281.3,216.2v-5.4h5.4v5.4h-5.4Z"/>
  </g>
  <rect class="st2" y="201.8" width="42.8" height="4.4"/>
  <rect class="st2" x="305" y="201.8" width="42.8" height="4.4"/>
  <g>
    <path class="st2" d="M227.9,41.7c-.5-1.5-1.8-2.5-3.4-2.7-.2,0-.3,0-.5,0-1.4,0-2.7.7-3.5,1.9-.4.6-1.2,1.2-2.3,1.8s-.2,0-.2-.1c.2-1.4.4-2.9.3-4.5-.2-6.3-8.8-24.9-27.6-31.6-.5-.2-.9-.2-1.4-.2-1.2,0-2.4.6-3.2,1.6,0,0-.1.1-.2.2-3.1-2.4-7-4.4-11.1-5.1-.2,0-.5,0-.7,0-.5,0-1,0-1.5.3s-.1,0-.1,0c-.2-.8-.8-1.6-1.5-2.1-.7-.5-1.6-.8-2.4-.8s-.7,0-1.1.1c-9.9,2.7-17,7-22.2,13.5-5,6.2-4.5,11-4,14.5s0,.1-.2.1c-2.3-1.3-5.1-2.3-8.1-2.5,0,0-.2,0-.2,0-1.9,0-3.6,1.3-4,3.3s.1,2.4.9,3.4c2.5,3.3,1.3,6.1-2.2,10.6-.6.8-1.2,1.5-1.6,2.2-2.4,4-3.2,7.5-3.1,10.5s0,0,0,0c-1.2.6-2.1,1.8-2.2,3.2-.4,3.6.8,7.4,3.5,10.7,1.7,2,4.3,4.4,8.5,6.2s0,0,0,.1c-.3.5-.5,1.1-.5,1.8-.1,1.8,1.1,3.4,2.7,4.1,2.7,1.1,5.7,1.6,8.8,1.6s1.3,0,2,0c-1.4,1.6-1.4,4,.2,5.6,7.6,7.7,17.8,12,28.7,12s21.3-4.4,29-12.3c1.5-1.6,1.5-4,0-5.6-.3-.3-.6-.7-1-1-1.1-1.1-2.3-2.1-3.5-2.9.5,0,1.3-.1,2.3-.1s2.7,0,4.3.2c1.6,0,3.3.2,5,.2,2.8,0,11.3,0,13.6-7.6.4-1.5.2-3.1-.8-4.2s-.6-.6-.9-.8,0-.1,0-.2c.9-.9,1.7-2,2.5-3.1,4.6-6.6,5.6-14.1,2.8-21.9Z"/>
    <path class="st1" d="M210.5,71.4c1.2-1.4,19.8-10.3,13.6-28.3-2.6,4.1-10.2,5.2-11.7,5.4,1-3.5,2.2-6.6,2.1-10.3-.2-5.1-8-21.9-24.9-28,2.6,3.8,5.1,10.9,3.2,17.9-.8-2.9-2.9-9.2-3.2-10-.9-3-7.3-9.9-15.1-11.2,3.8,5.5,3.8,9.3,3.7,12.8-9.4-4.7-9.2-12.7-9.2-15.6-8.2,2.2-15,5.8-20.1,12.1-7.2,8.9-.2,12.8-4.2,19.9-1.1-1.6-5.7-5.9-11.5-6.3,6,7.8-1.7,14.6-3.5,17.5-4.9,8.1-1.4,13.5.7,15.7-1.3.3-4-.8-5.5-3.6-.5,4.5,3.1,14.1,22.7,15.8-1.7,1.9-7.8,3.1-11.1,2.8,6,2.4,12.9,1.4,17.8-.8v-13.6c-.3.2-.6.4-.8.6-.3.2-.6.3-1,.3s0,0-.1,0c-.4,0-.8-.2-1-.5l-4.4-5.3c-.5-.6-.4-1.6.2-2.1,2.3-1.9,4.8-3.3,7.7-4.2.4-.1.8-.2,1.2-.3,3.2-7.5,10.6-12.7,19.2-12.7s16.1,5.3,19.3,12.8c.4.1.8.2,1.2.4,2.6.9,5,2.3,7.1,4,.6.5.7,1.5.2,2.1l-4.4,5.3c-.3.3-.6.5-1,.5,0,0,0,0-.1,0-.4,0-.7-.1-1-.3-.1,0-.2-.2-.4-.3v12.1c5.7-3.3,22.3,3.4,24.6-5.6-4.5,3.4-4.9-.3-10.1,1Z"/>
    <path class="st0" d="M165.5,66.9c0,1.4-1.1,2.5-2.5,2.5s-2.5-1.1-2.5-2.5,1.1-2.5,2.5-2.5,2.5,1.1,2.5,2.5"/>
    <path class="st0" d="M189.1,66.9c0,1.4-1.1,2.5-2.5,2.5s-2.5-1.1-2.5-2.5,1.1-2.5,2.5-2.5,2.5,1.1,2.5,2.5"/>
    <path class="st1" d="M199.9,85c-4.1-4.1-8.7-5.5-14.2-4.2-.3,0-.7.2-1,.3-.3.1-.7.2-1.1.3-.2,0-.4.2-.6.4v-5.3c0-.5-.4-1-1-1s-1,.4-1,1v5.8c0,3.6-2.9,6.5-6.5,6.5s-6.5-2.9-6.5-6.5v-5.8c0-.5-.4-1-1-1s-1,.4-1,1v4.9s0,0,0,0c-.4,0-.8-.2-1.1-.3-.3-.1-.6-.2-1-.3-5.5-1.3-10.1.1-14.2,4.2-.4.4-.7.8-1.1,1.2,6.6,6.6,15.7,10.8,25.8,10.8s19.5-4.2,26.1-11.1c-.3-.3-.5-.6-.8-.8Z"/>
    <path class="st1" d="M158.3,53c-1.1.2-2.1.5-3.2.8-2.6.9-5,2.2-7.2,4l4.4,5.3c.6-.5,1.2-.9,1.8-1.3,2.5-1.5,5.3-2.3,8.2-2.3s3.4.3,5.1.9l2.3-6.5c-2.4-.8-4.9-1.3-7.5-1.3s-2.6.1-3.9.3Z"/>
    <path class="st1" d="M191.3,53c-1.3-.2-2.6-.3-3.9-.3-2.5,0-5.1.4-7.5,1.3l2.3,6.5c1.6-.6,3.4-.9,5.1-.9,3,0,6.1.9,8.6,2.5.5.3.9.6,1.4,1l4.4-5.3c-2-1.6-4.2-2.9-6.7-3.8-1.2-.4-2.4-.8-3.7-1Z"/>
  </g>
</svg>