<?xml version="1.0" encoding="UTF-8"?>
<svg id="Layer_1" xmlns="http://www.w3.org/2000/svg" version="1.1" viewBox="0 0 352.2 214.8">
  <!-- Generator: Adobe Illustrator 29.8.2, SVG Export Plug-In . SVG Version: 2.1.1 Build 3)  -->
  <defs>
    <style>
      .st0 {
        fill-rule: evenodd;
      }

      .st0, .st1 {
        fill: #fff;
      }
    </style>
  </defs>
  <g>
    <path class="st1" d="M2.8,166.6v-55.1h36.3v9.6H13.5v12.9h21.7v9.6H13.5v13.4h25.5v9.6H2.8Z"/>
    <path class="st1" d="M52.7,166.6v-55.1h10.7v55.1h-10.7Z"/>
    <path class="st1" d="M111.9,166.6l-21.8-33.8v33.8h-10.7v-55.1h9.6l21.8,33.7v-33.7h10.7v55.1h-9.6Z"/>
    <path class="st1" d="M152.6,167.1c-8.4,0-14.7-1.8-20.1-7.3l7-7c3.5,3.5,8.2,4.6,13.3,4.6s9.7-2.4,9.7-6.8-.5-3.6-1.7-4.6c-1.1-1-2.3-1.5-4.9-1.9l-6.7-.9c-4.7-.7-8.2-2.2-10.7-4.6-2.6-2.6-3.9-6.2-3.9-10.8,0-9.8,7.3-16.7,19.2-16.7s13.1,1.9,17.8,6.4l-6.8,6.7c-3.5-3.3-7.7-3.8-11.3-3.8-5.7,0-8.5,3.2-8.5,7s.5,2.9,1.6,3.9c1.1,1,2.9,1.9,5.1,2.2l6.5.9c5,.7,8.2,2.1,10.5,4.3,2.9,2.8,4.3,6.8,4.3,11.7,0,10.7-8.9,16.7-20.4,16.7Z"/>
    <path class="st1" d="M207.2,121.2v45.5h-10.7v-45.5h-14.4v-9.6h39.5v9.6h-14.4Z"/>
    <path class="st1" d="M233.5,166.6v-55.1h36.3v9.6h-25.5v12.9h21.7v9.6h-21.7v13.4h25.5v9.6h-36.3Z"/>
    <path class="st1" d="M283.3,166.6v-55.1h10.7v55.1h-10.7Z"/>
    <path class="st1" d="M342.6,166.6l-21.8-33.8v33.8h-10.7v-55.1h9.6l21.8,33.7v-33.7h10.7v55.1h-9.6Z"/>
  </g>
  <g>
    <path class="st1" d="M17.9,59.9c2.2-2.2,7.5-7.2,12.2-11.8-.3-2.1-.6-4.3-.6-6.2,0-5.1,2.4-8.1,6-8.1s4.7,2.1,4.7,4.6-3.2,6.5-6.6,9.8c.4,2.5.8,5.2.8,7.2,0,6.5-4.3,10.9-10.3,10.9s-4.8-.8-6.6-2.1c-1.6,2.1-2.5,4.4-2,7.2h-2.5c-.5-2.8.3-5.9,2.7-9-1.3-1.7-2-3.8-2-6.2,0-7.4,7.2-11.3,12.6-8.6l-1.1,2.7c-4.5-1.8-8.3,1.4-8.3,5.8s.3,2.6,1,3.7ZM30.6,51.3c-3.7,3.5-7.3,7-10.9,10.6,1.1.8,2.5,1.4,4.2,1.4,4.2,0,7.2-2.9,7.2-7.7s-.2-2.7-.4-4.3ZM33.2,45.2c2.7-2.6,4.3-4.4,4.3-6.3s-.6-2-1.7-2-2.9,1.6-2.9,4.8.1,2.1.3,3.4Z"/>
    <path class="st1" d="M65.8,55.1c-2.8,4.8-5.9,8.7-9.3,8.7s-4.5-1.9-2-8.1l1.4-3.4c.6-1.6,1.2-3,1.2-3.5s-.4-.8-1-.8c-.9,0-2.6.8-4.1,2.5l-5.2,12.9h-3.6s4.3-10.6,4.5-11.1c.6-1.6,1.2-3,1.2-3.5s-.4-.8-1-.8c-.9,0-2.6.8-4.1,2.5l-5.2,12.9h-3.6l7.2-18h3.6l-.7,1.8c1.8-1.6,3.5-2.2,4.8-2.2s2.8,1,2.7,2.8c2-2.1,4.1-2.8,5.4-2.8s2.8.9,2.8,2.7-.5,2.5-1.1,4.2l-2.1,5.2c-1.7,4.1-.7,4.4-.1,4.4,1.8,0,4.5-3.4,6.9-7.4.5,0,1.3.6,1.5,1.1Z"/>
    <path class="st1" d="M83.8,55.1c-2.7,4.6-5.8,8.7-9.3,8.7s-3.2-2.8-3.2-2.8c0,0-2.1,2.8-4.9,2.8s-3.3-1.7-3.3-3.9c0-3.7,3.3-15,9.1-15s3.4,2.8,3.4,2.8l1-2.4h3.6l-4.7,11.7c-1.4,3.5-1,4.4,0,4.4,1.7,0,4.5-3.4,6.8-7.4.5,0,1.3.6,1.5,1.1ZM71.7,57.6l2.9-7.1s0-2.5-1.7-2.5c-3.3,0-6.3,8.6-6.3,11.4s.4,1.4,1.1,1.4c2,0,4-3.2,4-3.2Z"/>
    <path class="st1" d="M82.3,54c1-1.7,2.1-3.9,3.1-6.2-.6-.7-1.1-1.4-1.1-2.2,0-1.6,1.7-3.2,3.1-3.7l1.9,1.3-1.3,3.1c1.4,1.4,4.1,2.8,4.1,5.1s-.1,1-.4,1.8l-1.6,3.8c-1.6,3.9-.7,4.4-.2,4.4,1.3,0,3.2-2.6,6.1-7.4.5,0,1.3.6,1.5,1.1-2.7,4.6-5.3,8.7-8.6,8.7s-4.4-2.2-1.9-8.1l1.3-3.1c.3-.7.3-1,.3-1.2,0-.7-.7-1.3-1.8-2.2-.9,1.9-1.9,3.9-3,6-.5,0-1.3-.6-1.5-1.1Z"/>
    <path class="st1" d="M107.2,55.1c-2.6,4.6-6,8.7-9.8,8.7s-4.6-1.9-2.1-8.1l4.2-10.3h-3.2l.8-1.9h3.2l2-5h3.6l-2,5h3l-.8,1.9h-3l-4.7,11.7c-1.6,3.9-.8,4.4,0,4.4,2,0,4.9-3.3,7.3-7.4.5,0,1.3.6,1.5,1.1Z"/>
  </g>
  <g>
    <path class="st1" d="M267.9,39.3c2-1.8,4-2.5,5.4-2.5s3.3,1.2,3.2,3.2c2.4-2.5,4.7-3.2,6.2-3.2s3.2,1.1,3.2,3-.5,2.7-1.3,4.8l-7.5,18.6c-.7,2-.6,3.3,1.2,4.4l-1.2,3.1c-3.7-1.8-4.7-4.6-3.3-8.6l6.7-16.6c.8-1.9,1.5-3.6,1.5-4.3s-.1-1-1-1c-1.4,0-3.6,1.3-5.3,3.2l-8.2,20.3h-3.6l7.3-18.1c.8-1.9,1.5-3.6,1.5-4.3s-.1-1-1-1c-1.4,0-3.6,1.3-5.3,3.2l-8.2,20.3h-3.6l9.5-23.5c-4.3,1.9-11.3,3.4-11.3,7.8s1.1,3,2.8,3v3c-3.6,0-5.9-2.8-5.8-5.9,0-7.2,9.8-8.7,15.8-11.5l2.5,2.8Z"/>
    <path class="st1" d="M302.6,55.1c-2.1,3.6-5.1,5.9-8.6,5-1.6,2.2-3.7,3.7-6.3,3.7s-4.5-1.6-4.5-4.9,3.5-14,9.9-14,4.5,1.6,4.5,4.9-.8,5.4-2.3,8.2c1.8.4,4-.8,5.9-4,.5,0,1.3.6,1.5,1.1ZM291.1,58.6c-.4-.4-.6-.9-.6-1.5,0-1.3,1.1-2.3,2.4-2.1.8-2.1,1.4-4.3,1.4-5.6s-.6-2-1.4-2c-3,0-6.5,8.6-6.5,11.8s.6,2.1,1.5,2.1,2.2-1.1,3.2-2.7Z"/>
    <path class="st1" d="M318.1,55.1c-2.3,4.1-6,6.4-10.3,4.4,0,0-2.2,2.1-5.2,3.8h-3.5l3.9-18h3.5l-3.2,14.6c3.4-2.5,7.9-6.9,9.5-14.6l2.8-.5c-.4,2.5-1.7,7.9-6.1,12.8,2.2,1,4.9,0,7.1-3.7.5,0,1.3.6,1.5,1.1Z"/>
    <path class="st1" d="M332.9,55.1c-2.4,4.2-6.3,8.7-11.8,8.7s-5.4-1.8-5.4-5.2c0-5,4.1-13.6,9.9-13.6s5.1,3,3.1,7.1c-1.8,3.8-4.8,4.7-9.2,4.2,0,0-2,5.2,2.4,5.2s7-3,9.6-7.4c.5,0,1.3.6,1.5,1.1ZM320.1,54.2c3.3.6,4.6-1.2,5.5-3.2,1-2.2.9-3.2-.3-3.2-3,0-5.2,6.4-5.2,6.4Z"/>
  </g>
  <g>
    <path class="st1" d="M85.9,214.6v-15.3l-5,10h-3.5l-5.1-10v15.3h-5.1v-26.3h5.1l6.9,14.2,6.8-14.2h5.1v26.3h-5.1Z"/>
    <path class="st1" d="M116,211.9c-1.8,1.8-4.1,2.9-7.1,2.9s-5.3-1-7.1-2.9c-2.7-2.7-2.6-5.9-2.6-10.5s0-7.8,2.6-10.5c1.8-1.8,4.1-2.9,7.1-2.9s5.2,1,7.1,2.9c2.7,2.7,2.6,5.9,2.6,10.5s0,7.8-2.6,10.5ZM112.2,194.1c-.7-.8-1.9-1.4-3.3-1.4s-2.6.6-3.3,1.4c-1,1.1-1.3,2.3-1.3,7.4s.3,6.3,1.3,7.4c.7.8,1.9,1.4,3.3,1.4s2.5-.6,3.3-1.4c1-1.1,1.3-2.3,1.3-7.4s-.3-6.3-1.3-7.4Z"/>
    <path class="st1" d="M136,214.6h-3.8l-8.7-26.3h5.3l5.3,17.1,5.3-17.1h5.4l-8.7,26.3Z"/>
    <path class="st1" d="M150.9,214.6v-26.3h5.1v26.3h-5.1Z"/>
    <path class="st1" d="M180.6,214.6l-10.4-16.1v16.1h-5.1v-26.3h4.6l10.4,16.1v-16.1h5.1v26.3h-4.6Z"/>
    <path class="st1" d="M210.5,211.8c-2.1,2.2-4.6,3-7.4,3s-5.2-1-7.1-2.9c-2.7-2.7-2.6-5.9-2.6-10.5s0-7.8,2.6-10.5c1.8-1.8,4.1-2.9,7.1-2.9,6.1,0,9.2,4,9.9,8.4h-5.2c-.6-2.5-2.1-3.8-4.7-3.8s-2.5.6-3.3,1.4c-1,1.1-1.3,2.3-1.3,7.4s.3,6.3,1.3,7.4c.7.8,1.9,1.4,3.3,1.4s2.8-.6,3.7-1.5c.8-1,1.2-2.1,1.2-3.5v-1h-4.8v-4.3h9.9v3.8c0,3.8-.7,6.1-2.5,8Z"/>
    <path class="st1" d="M241.5,214.8c-2.9,0-5.2-1-7.1-2.9-2.7-2.7-2.6-5.9-2.6-10.5s0-7.8,2.6-10.5c1.8-1.8,4.2-2.9,7.1-2.9,4.9,0,8.7,2.8,9.7,8.3h-5.2c-.5-2.1-1.8-3.7-4.4-3.7s-2.5.5-3.3,1.4c-1,1.1-1.3,2.4-1.3,7.4s.3,6.3,1.3,7.4c.7.8,1.9,1.4,3.3,1.4,2.6,0,3.9-1.6,4.4-3.7h5.2c-.9,5.5-4.8,8.3-9.7,8.3Z"/>
    <path class="st1" d="M274.4,211.9c-1.8,1.8-4.1,2.9-7.1,2.9s-5.3-1-7.1-2.9c-2.7-2.7-2.6-5.9-2.6-10.5s0-7.8,2.6-10.5c1.8-1.8,4.1-2.9,7.1-2.9s5.2,1,7.1,2.9c2.7,2.7,2.6,5.9,2.6,10.5s0,7.8-2.6,10.5ZM270.6,194.1c-.7-.8-1.9-1.4-3.3-1.4s-2.6.6-3.3,1.4c-1,1.1-1.3,2.3-1.3,7.4s.3,6.3,1.3,7.4c.7.8,1.9,1.4,3.3,1.4s2.5-.6,3.3-1.4c1-1.1,1.3-2.3,1.3-7.4s-.3-6.3-1.3-7.4Z"/>
    <path class="st1" d="M284.7,214.6v-5.5h5.5v5.5h-5.5Z"/>
  </g>
  <g>
    <path class="st1" d="M214.1,68.2c1.2-1.4,20.1-10.5,13.8-28.7-2.6,4.1-10.3,5.3-11.9,5.5,1.1-3.6,2.2-6.6,2.1-10.5-.2-5.1-8.1-22.2-25.2-28.3,2.6,3.9,5.1,11,3.2,18.1-.8-2.9-2.9-9.4-3.2-10.2-1-3-7.4-10-15.4-11.4,3.8,5.6,3.9,9.4,3.8,13-9.5-4.8-9.3-12.9-9.3-15.8-8.3,2.3-15.2,5.8-20.4,12.3-7.3,9-.2,13-4.3,20.2-1.1-1.6-5.8-6-11.7-6.4,6.1,7.9-1.7,14.7-3.5,17.7-5,8.2-1.5,13.7.7,15.9-1.3.3-4-.8-5.6-3.6-.6,4.5,3.1,14.3,23,16-1.7,1.9-7.9,3.1-11.3,2.8,6.1,2.4,13.1,1.4,18.1-.8v-13.8c-.3.2-.6.4-.8.6-.3.2-.6.4-1,.4s0,0-.1,0c-.4,0-.8-.2-1-.6l-4.4-5.4c-.5-.7-.4-1.6.2-2.2,2.3-1.9,4.9-3.3,7.8-4.3.4-.1.8-.2,1.2-.4,3.2-7.5,10.7-12.9,19.4-12.9s16.3,5.4,19.5,13c.4.1.8.2,1.2.4,2.7,1,5.1,2.3,7.2,4.1.7.5.8,1.5.2,2.2l-4.4,5.4c-.3.3-.6.5-1,.6,0,0,0,0-.1,0-.4,0-.7-.1-1-.4-.1,0-.3-.2-.4-.3v12.2c5.8-3.4,22.6,3.4,25-5.6-4.6,3.4-5-.3-10.2,1Z"/>
    <path class="st0" d="M168.5,63.6c0,1.4-1.1,2.5-2.5,2.5s-2.5-1.1-2.5-2.5,1.1-2.5,2.5-2.5,2.5,1.1,2.5,2.5"/>
    <path class="st0" d="M192.4,63.6c0,1.4-1.1,2.5-2.5,2.5s-2.5-1.1-2.5-2.5,1.1-2.5,2.5-2.5,2.5,1.1,2.5,2.5"/>
    <path class="st1" d="M203.4,81.9c-4.2-4.2-8.8-5.6-14.4-4.3-.3,0-.7.2-1,.3-.3.1-.7.2-1.1.3-.2,0-.4.2-.6.4v-5.4c0-.5-.4-1-1-1s-1,.4-1,1v5.9c0,3.6-3,6.6-6.6,6.6s-6.6-3-6.6-6.6v-5.9c0-.5-.4-1-1-1s-1,.4-1,1v5s0,0,0,0c-.4,0-.8-.2-1.1-.3-.3-.1-.7-.2-1-.3-5.6-1.3-10.2.1-14.4,4.3-.4.4-.7.8-1.1,1.2,6.7,6.7,15.9,10.9,26.1,10.9s19.7-4.3,26.4-11.2c-.3-.3-.5-.6-.8-.9Z"/>
    <path class="st1" d="M161.2,49.5c-1.1.2-2.2.5-3.2.8-2.6.9-5.1,2.2-7.3,4l4.4,5.4c.6-.5,1.2-.9,1.8-1.3,2.5-1.5,5.4-2.3,8.3-2.3s3.5.3,5.2.9l2.3-6.5c-2.4-.9-5-1.3-7.6-1.3s-2.6.1-3.9.3Z"/>
    <path class="st1" d="M194.7,49.5c-1.3-.2-2.6-.3-3.9-.3-2.6,0-5.1.4-7.6,1.3l2.3,6.5c1.7-.6,3.4-.9,5.2-.9,3.1,0,6.1.9,8.7,2.6.5.3.9.6,1.4,1l4.4-5.4c-2-1.7-4.3-2.9-6.8-3.8-1.2-.4-2.5-.8-3.7-1Z"/>
  </g>
  <rect class="st1" y="200" width="43.3" height="4.4"/>
  <rect class="st1" x="308.7" y="200" width="43.3" height="4.4"/>
  <path class="st1" d="M334.1,49.2c-.8,0-1.4-.2-2-.7l.7-.7c.3.3.8.5,1.3.5s1-.2,1-.7,0-.3-.2-.5c-.1,0-.2-.2-.5-.2h-.6c-.5-.2-.8-.3-1-.5-.3-.3-.4-.6-.4-1.1,0-1,.7-1.6,1.9-1.6s1.3.2,1.7.6l-.7.7c-.3-.3-.7-.4-1.1-.4-.6,0-.8.3-.8.7s0,.3.2.4c.1,0,.3.2.5.2h.6c.5.2.8.3,1,.5.3.3.4.7.4,1.1,0,1-.9,1.6-2,1.6Z"/>
  <path class="st1" d="M340.9,49.2v-3.1l-1,2h-.7l-1-2v3.1h-1v-5.4h1l1.4,2.9,1.4-2.9h1v5.4h-1Z"/>
</svg>